<?xml version="1.0" encoding="utf-8"?>
<!-- Generator: Adobe Illustrator 24.3.0, SVG Export Plug-In . SVG Version: 6.00 Build 0)  -->
<svg version="1.1" xmlns="http://www.w3.org/2000/svg" xmlns:xlink="http://www.w3.org/1999/xlink" x="0px" y="0px"
	 viewBox="0 0 496 497" style="enable-background:new 0 0 496 497;" xml:space="preserve">
<style type="text/css">
	.st0{display:none;}
	.st1{display:inline;fill:#232323;}
	.st2{fill:none;stroke:#FFDA00;stroke-width:23;stroke-miterlimit:10;stroke-dasharray:81.8072,27.6099;}
	.st3{fill:#FFFFFF;}
</style>
<g id="Capa_3" class="st0">
	<rect class="st1" width="496" height="496"/>
</g>
<g id="Capa_2">
	<g>
		<circle class="st2" cx="247.1" cy="248.3" r="226.4"/>
	</g>
	<path class="st3" d="M210.7,275.8c0.3-11.7-1.7-22-6.1-30.9c-2.3-4.7-5-8-8.3-9.9c-3.3-2-6.5-2.2-9.6-0.6c-1.7,0.8-2.9,1.7-3.7,2.7
		c-0.8,1-1.3,2.5-1.4,4.5c-0.2,2,0.1,4.8,0.9,8.2c0.8,3.4,1.8,7.9,3.1,13.5c4,15.3,4.1,28.2,0.3,38.5c-3.8,10.4-11.3,18.3-22.4,23.7
		c-8.4,4.1-16.7,6.1-25,6c-8.3-0.1-16.2-2-23.7-5.7c-7.5-3.7-14.5-9.2-21.1-16.3c-6.6-7.1-12.3-15.7-17.2-25.8
		c-9.4-19.3-13.3-41.1-11.5-65.2l44.7,1c-2.8,18.9-1.1,34.6,5.1,47.2c2.3,4.6,5.2,8,8.7,9.9c3.5,2,6.8,2.2,10,0.6
		c1.9-0.9,3.3-1.9,4.3-2.9c1-1.1,1.6-2.6,1.9-4.6c0.3-2,0.2-4.6-0.4-7.9c-0.6-3.3-1.5-7.5-2.9-12.6c-4.5-17.2-5.1-30.4-1.9-39.7
		c3.2-9.3,10.3-16.6,21.2-21.9c8-3.9,15.9-5.9,23.8-6.1c7.9-0.2,15.4,1.5,22.6,4.9c7.2,3.4,13.9,8.5,20.2,15.2
		c6.3,6.7,11.8,14.9,16.5,24.6c7.7,15.8,12.1,32.6,13.3,50.5L210.7,275.8z"/>
	<path class="st3" d="M263.5,154.3H336c12.8,0,24.9,2.6,36.1,7.8c11.3,5.2,21.1,12,29.5,20.6c8.4,8.6,15,18.6,19.9,30
		c4.8,11.4,7.3,23.4,7.3,35.9c0,12.3-2.4,24.2-7.1,35.6c-4.8,11.4-11.3,21.5-19.8,30.1c-8.4,8.7-18.3,15.6-29.5,20.8
		c-11.3,5.2-23.4,7.8-36.4,7.8h-72.5V154.3z M312.5,301.3h11.3c8.5,0,16.1-1.3,22.8-4c6.7-2.7,12.3-6.3,16.9-11
		c4.6-4.7,8.1-10.2,10.5-16.6c2.4-6.4,3.6-13.5,3.6-21.1c0-7.5-1.2-14.5-3.8-21c-2.5-6.5-6-12.1-10.6-16.8
		c-4.6-4.7-10.2-8.3-16.9-11c-6.7-2.7-14.2-4-22.5-4h-11.3V301.3z"/>
</g>
</svg>
