<?xml version="1.0" encoding="utf-8"?>
<!-- Generator: Adobe Illustrator 24.3.0, SVG Export Plug-In . SVG Version: 6.00 Build 0)  -->
<svg version="1.1" xmlns="http://www.w3.org/2000/svg" xmlns:xlink="http://www.w3.org/1999/xlink" x="0px" y="0px"
	 viewBox="0 0 1273.3 400.4" style="enable-background:new 0 0 1273.3 400.4;" xml:space="preserve">
<style type="text/css">
	.st0{display:none;}
	.st1{display:inline;fill:#007F7C;}
	.st2{fill:#FFDA00;}
	.st3{fill:#FFFFFF;}
</style>
<g id="Capa_3" class="st0">
	<rect class="st1" width="1273.3" height="400.4"/>
</g>
<g id="Capa_2">
	<g>
		<path class="st2" d="M57.4,271L13,269.1c0-5.2,2.3-13.6,3.3-18c4.6-21.7,12.3-42.7,21.5-62.9L76.8,206
			c-7.9,17.4-14.8,35.5-17.9,54.3C58.2,264.6,58,267.2,57.4,271z"/>
		<path class="st2" d="M560.3,199.4c-22.2-45.4-56.7-83.4-99.7-110l22.5-36.5c50,30.9,90,75,115.8,127.7L560.3,199.4z M102.1,162.1
			l-35-24.9c34.1-47.9,80.7-85,134.9-107.3l16.3,39.7C171.7,88.8,131.5,120.7,102.1,162.1z M415.1,67c-30-11.3-61.7-17.1-94.1-17.1
			l-1,0l-0.8,0c-17.6,0-35.2,1.7-52.4,5.1l-8.4-42.1c19.9-4,40.3-6,60.8-6l0.9,0l0.9,0c37.6,0,74.3,6.7,109.2,19.9L415.1,67z"/>
		<path class="st2" d="M587.1,315.2c4.4-14.6-3.1-46.1-9-68.3l41.4-11.1c6.9,25.7,10.9,52.5,11,79.4H587.1z"/>
	</g>
	<path class="st3" d="M455.2,216.5c0.6-3.5,1.8-6.2,3.5-8.1c1.7-1.9,3.6-3.1,5.5-3.7c2-0.6,3.9-0.9,5.8-0.9c2.9,0,5.7,0.4,8.4,1.2
		c2.7,0.8,5.5,1.9,8.6,3.5v-40.7c-3.4-1.5-6.8-2.7-10.2-3.6c-3.3-0.9-7-1.3-10.9-1.3c-5.7,0-11.4,0.9-17.3,2.8
		c-5.8,1.9-11.3,4.6-16.4,8c-5.1,3.4-9.5,7.5-13.3,12.2c-3.8,4.7-6.5,9.8-8.2,15.3c-2.1,6.5-3.1,15.3-3.1,26.3v19.8H356h-0.5h-46.4
		V260c-10.8-11.5-24.5-17.3-40.9-17.3c-9.8,0-18.7,1.8-26.8,5.5c-8.1,3.7-15,8.7-20.9,15.1c-5.8,6.4-10.4,13.8-13.6,22.3
		c-3.3,8.5-4.9,17.5-4.9,26.9c0,10.1,1.7,19.5,5,28.1c3.3,8.6,8,16.1,14,22.4c6,6.4,13,11.3,21.1,14.8c8.1,3.5,16.9,5.3,26.5,5.3
		c17,0,30.5-6.3,40.4-18.8V379H356v-92.8h51.7v93.2h46.6v-93.2H487v-38.9h-32.7v-16.5C454.3,224.8,454.6,220,455.2,216.5z
		 M308.3,324.7c-1.6,3.6-3.8,6.8-6.4,9.5c-2.7,2.7-5.8,4.9-9.5,6.4c-3.7,1.5-7.6,2.3-11.7,2.3c-4.3,0-8.3-0.8-12-2.3
		c-3.7-1.5-6.9-3.7-9.5-6.4c-2.7-2.7-4.8-6-6.3-9.7c-1.5-3.7-2.3-7.7-2.3-12c0-4.1,0.8-7.9,2.3-11.5c1.5-3.5,3.6-6.7,6.3-9.4
		c2.7-2.7,5.8-4.9,9.5-6.4c3.7-1.5,7.7-2.3,12-2.3c4.1,0,8,0.8,11.7,2.3c3.7,1.5,6.9,3.7,9.5,6.4c2.7,2.7,4.8,6,6.4,9.7
		c1.6,3.7,2.4,7.6,2.4,11.7C310.7,317.2,309.9,321.1,308.3,324.7z"/>
	<path class="st3" d="M532.4,318.2c0,20.1,9.4,30.1,28.3,30.1c10.1,0,17.8-4.1,22.9-12.4h45.1c-9.1,30.2-31.8,45.3-68.2,45.3
		c-11.2,0-21.4-1.7-30.6-5c-9.3-3.3-17.2-8.1-23.8-14.3c-6.6-6.2-11.7-13.6-15.3-22.1c-3.6-8.6-5.4-18.2-5.4-28.8
		c0-11,1.7-20.9,5.2-29.7c3.4-8.8,8.3-16.4,14.7-22.5c6.3-6.2,14-10.9,23-14.3c9-3.3,19.2-5,30.5-5c11.2,0,21.2,1.7,30.1,5
		c8.9,3.3,16.5,8.2,22.7,14.5c6.2,6.4,10.9,14.1,14.2,23.3c3.3,9.2,4.9,19.5,4.9,31v4.9H532.4z M587,291.1
		c-1.5-6.5-4.7-11.8-9.5-15.7c-4.8-3.9-10.6-5.9-17.5-5.9c-7.2,0-13.1,1.9-17.6,5.7c-4.6,3.8-7.4,9.1-8.6,16H587z"/>
	<path class="st3" d="M159,323.7c0.3-11.7-1.7-22-6.1-30.9c-2.3-4.7-5-8-8.3-9.9c-3.3-2-6.5-2.2-9.6-0.6c-1.7,0.8-2.9,1.7-3.7,2.7
		c-0.8,1-1.3,2.5-1.4,4.5c-0.2,2,0.1,4.8,0.9,8.2c0.8,3.4,1.8,7.9,3.1,13.5c4,15.3,4.1,28.2,0.3,38.5c-3.8,10.4-11.3,18.3-22.4,23.7
		c-8.4,4.1-16.7,6.1-25,6c-8.3-0.1-16.2-2-23.7-5.7c-7.5-3.7-14.5-9.2-21.1-16.3c-6.6-7.1-12.3-15.7-17.2-25.8
		c-9.4-19.3-13.3-41.1-11.5-65.2l44.7,1c-2.8,18.9-1.1,34.6,5.1,47.2c2.3,4.6,5.2,8,8.7,9.9c3.5,2,6.8,2.2,10,0.6
		c1.9-0.9,3.3-1.9,4.3-2.9c1-1.1,1.6-2.6,1.9-4.6c0.3-2,0.2-4.6-0.4-7.9c-0.6-3.3-1.5-7.5-2.9-12.6c-4.5-17.2-5.1-30.4-1.9-39.7
		c3.2-9.3,10.3-16.6,21.2-21.9c8-3.9,15.9-5.9,23.8-6.1c7.9-0.2,15.4,1.5,22.6,4.9c7.2,3.4,13.9,8.5,20.2,15.2
		c6.3,6.7,11.8,14.9,16.5,24.6c7.7,15.8,12.1,32.6,13.3,50.5L159,323.7z"/>
	<g>
		<path class="st3" d="M639.2,195.4h72.5c12.8,0,24.9,2.6,36.1,7.8c11.3,5.2,21.1,12,29.5,20.6c8.4,8.6,15,18.6,19.9,30
			c4.8,11.4,7.3,23.4,7.3,35.9c0,12.3-2.4,24.2-7.1,35.6c-4.8,11.4-11.3,21.5-19.8,30.1c-8.4,8.7-18.3,15.6-29.5,20.8
			c-11.3,5.2-23.4,7.8-36.4,7.8h-72.5V195.4z M688.2,342.4h11.3c8.5,0,16.1-1.3,22.8-4c6.7-2.7,12.3-6.3,16.9-11
			c4.6-4.7,8.1-10.2,10.5-16.6c2.4-6.4,3.6-13.5,3.6-21.1c0-7.5-1.2-14.5-3.8-21c-2.5-6.5-6-12.1-10.6-16.8
			c-4.6-4.7-10.2-8.3-16.9-11c-6.7-2.7-14.2-4-22.5-4h-11.3V342.4z"/>
		<path class="st3" d="M815.3,255.6h45.3v21c4.8-7.7,10.8-13.5,17.8-17.6c7-4.1,15.2-6.1,24.5-6.1c1.2,0,2.5,0,3.9,0
			c1.4,0,3,0.2,4.9,0.5v43.3c-6-3-12.5-4.5-19.5-4.5c-10.5,0-18.4,3.1-23.6,9.4c-5.3,6.3-7.9,15.4-7.9,27.4v55h-45.3V255.6z"/>
		<path class="st3" d="M912.5,206.4c0-3.5,0.7-6.8,2-9.9c1.3-3.1,3.2-5.8,5.5-8.1c2.3-2.3,5-4.2,8.1-5.5c3.1-1.3,6.4-2,9.9-2
			c3.5,0,6.8,0.7,9.9,2c3.1,1.3,5.8,3.2,8.1,5.5c2.3,2.3,4.2,5,5.5,8.1c1.3,3.1,2,6.4,2,9.9c0,3.5-0.7,6.8-2,9.9
			c-1.3,3.1-3.2,5.8-5.5,8.1c-2.3,2.3-5,4.2-8.1,5.5c-3.1,1.3-6.4,2-9.9,2c-3.5,0-6.8-0.7-9.9-2c-3.1-1.3-5.8-3.2-8.1-5.5
			c-2.3-2.3-4.2-5-5.5-8.1C913.2,213.2,912.5,209.9,912.5,206.4z M960.8,255.6v128.3h-45.3V255.6H960.8z"/>
		<path class="st3" d="M1013.6,255.6l30.5,65.8l31-65.8h50.5l-66.8,128.3h-30.3l-66-128.3H1013.6z"/>
		<path class="st3" d="M1159.6,327.4c0,19.5,9.2,29.3,27.5,29.3c9.8,0,17.3-4,22.3-12h43.8c-8.8,29.3-30.9,44-66.3,44
			c-10.8,0-20.8-1.6-29.8-4.9c-9-3.3-16.7-7.9-23.1-13.9c-6.4-6-11.4-13.2-14.9-21.5c-3.5-8.3-5.3-17.7-5.3-28
			c0-10.7,1.7-20.3,5-28.9c3.3-8.6,8.1-15.9,14.3-21.9c6.2-6,13.6-10.6,22.4-13.9c8.8-3.3,18.6-4.9,29.6-4.9
			c10.8,0,20.6,1.6,29.3,4.9c8.7,3.3,16,8,22,14.1c6,6.2,10.6,13.7,13.8,22.6c3.2,8.9,4.8,19,4.8,30.1v4.8H1159.6z M1212.7,301.1
			c-1.5-6.3-4.6-11.4-9.3-15.3c-4.7-3.8-10.3-5.8-17-5.8c-7,0-12.7,1.8-17.1,5.5c-4.4,3.7-7.2,8.8-8.4,15.5H1212.7z"/>
	</g>
</g>
</svg>
